<svg width="216" height="17" viewBox="0 0 216 17" fill="none" xmlns="http://www.w3.org/2000/svg">
<path d="M13.1518 8.118C14.4864 8.23533 15.5351 8.63867 16.2978 9.328C17.0604 10.0027 17.4418 10.8973 17.4418 12.012C17.4418 13.4053 16.7671 14.4467 15.4178 15.136C14.0684 15.8253 11.9418 16.17 9.03777 16.17H0.259766V0.33H8.86177C11.6044 0.33 13.5991 0.667332 14.8458 1.342C16.0924 2.002 16.7158 3.04333 16.7158 4.466C16.7158 6.534 15.5278 7.75133 13.1518 8.118ZM9.05977 2.992H4.26377V6.82H9.21377C11.6631 6.82 12.8878 6.182 12.8878 4.906C12.8878 4.246 12.5798 3.762 11.9638 3.454C11.3478 3.146 10.3798 2.992 9.05977 2.992ZM9.21377 13.354C10.6804 13.354 11.7291 13.2 12.3598 12.892C12.9904 12.5693 13.3058 12.0707 13.3058 11.396C13.3058 10.6627 12.9684 10.1273 12.2938 9.79C11.6338 9.45267 10.6071 9.284 9.21377 9.284H4.26377V13.354H9.21377Z" fill="white"/>
<path d="M34.0485 0.33H38.0525V16.17H34.0485V9.526H24.5665V16.17H20.5625V0.33H24.5665V6.6H34.0485V0.33Z" fill="white"/>
<path d="M56.3658 16.17L54.8038 12.738H46.0698L44.5078 16.17H40.4158L48.1158 0.33H52.7138L60.4358 16.17H56.3658ZM47.3238 9.988H53.5498L50.4478 3.168L47.3238 9.988Z" fill="white"/>
<path d="M85.4917 0.33H89.6497L83.5117 16.17H78.8257L75.1957 5.5L74.9317 4.642L74.6897 5.5L71.0597 16.17H66.3737L60.2357 0.33H64.3937L68.7497 13.068L72.9737 0.747999H76.9117L80.8497 12.21L81.1357 13.068L81.4437 12.188L85.4917 0.33Z" fill="white"/>
<path d="M92.4707 16.17V0.33H96.4747V16.17H92.4707Z" fill="white"/>
<path d="M100.592 16.17V0.33H104.574L115.244 11.704V0.33H118.962V16.17H114.87L104.332 4.796V16.17H100.592Z" fill="white"/>
<path d="M147.066 0.33H151.224L145.086 16.17H140.4L136.77 5.5L136.506 4.642L136.264 5.5L132.634 16.17H127.948L121.81 0.33H125.968L130.324 13.068L134.548 0.747999H138.486L142.424 12.21L142.71 13.068L143.018 12.188L147.066 0.33Z" fill="white"/>
<path d="M162.875 16.5C159.766 16.5 157.302 15.7667 155.483 14.3C153.679 12.8187 152.777 10.7947 152.777 8.228C152.777 5.676 153.679 3.66667 155.483 2.2C157.302 0.733333 159.766 0 162.875 0C165.984 0 168.441 0.733333 170.245 2.2C172.049 3.66667 172.951 5.676 172.951 8.228C172.951 10.7947 172.042 12.8187 170.223 14.3C168.419 15.7667 165.97 16.5 162.875 16.5ZM162.875 13.618C164.694 13.618 166.109 13.1487 167.121 12.21C168.148 11.2713 168.661 9.944 168.661 8.228C168.661 6.54133 168.141 5.22867 167.099 4.29C166.072 3.35133 164.665 2.882 162.875 2.882C161.086 2.882 159.671 3.35133 158.629 4.29C157.588 5.22867 157.067 6.54133 157.067 8.228C157.067 9.92933 157.588 11.2567 158.629 12.21C159.671 13.1487 161.086 13.618 162.875 13.618Z" fill="white"/>
<path d="M191.905 11.352L193.885 16.148H189.485L187.747 11.748C187.483 11.0587 187.087 10.5967 186.559 10.362C186.046 10.1273 185.305 10.01 184.337 10.01H180.113V16.17H176.109V0.33H184.755C190.358 0.33 193.159 1.87 193.159 4.95C193.159 6.006 192.793 6.87133 192.059 7.546C191.326 8.22067 190.299 8.624 188.979 8.756C190.329 9.04933 191.304 9.91467 191.905 11.352ZM184.733 7.304C186.347 7.304 187.454 7.128 188.055 6.776C188.657 6.424 188.957 5.91067 188.957 5.236C188.957 3.916 187.557 3.256 184.755 3.256H180.113V7.304H184.733Z" fill="white"/>
<path d="M215.108 16.17H210.533L205.143 10.098L199.753 16.17H195.176L202.546 8.074L195.572 0.33H200.082L205.164 5.984L210.202 0.33H214.712L207.738 8.074L215.108 16.17Z" fill="white"/>
</svg>
